{"title":"Under the Skin (2013) 1080p DD5.1 NL Subs x264-NLU002","uid":10446343,"size":3924895634,"categoryP":"video","categoryS":"hd___movies","magnet":"?xt=urn:btih:1bcb4233d9ffd1f5d269ff6f8614da7625e34ffc&amp;dn=Under+the+Skin+%282013%29+1080p+DD5.1+NL+Subs+x264-NLU002&amp;tr=udp%3A%2F%2Ftracker.openbittorrent.com%3A80&amp;tr=udp%3A%2F%2Fopen.demonii.com%3A1337&amp;tr=udp%3A%2F%2Ftracker.coppersurfer.tk%3A6969&amp;tr=udp%3A%2F%2Fexodus.desync.com%3A6969","seeders":23,"leechers":3,"uploader":"NLUPPER002","files":11,"time":1403968518,"description":"Under the Skin (2013) 1080p DD5.1 NL Subs x264-NLU002\n.\n[URL=https://imageshack.com/i/mvc1binj][IMG]http://imagizer.imageshack.us/v2/xq90/823/c1bin.jpg[/IMG][/URL]\n.\nR -  108 min  -  Drama | Sci-Fi | Thriller  -  25 September 2014 (Netherlands) \n.\nRated R for graphic nudity, sexual content, some violence and language\n. &lt;a href=&quot;\nhttp://www.imdb.com/title/tt1441395&quot; rel=&quot;nofollow&quot; target=&quot;_NEW&quot;&gt;\nhttp://www.imdb.com/title/tt1441395&lt;/a&gt;\n. &lt;a href=&quot;\nhttp://www.moviemeter.nl/film/85005&quot; rel=&quot;nofollow&quot; target=&quot;_NEW&quot;&gt;\nhttp://www.moviemeter.nl/film/85005&lt;/a&gt;\n.\nPLOT\n.\nA mysterious seductress preys upon the population of Scotland.\n.\nSource: WD\nFormat: MKV\nVideo: 1080p\nAudio: English DD5.1\nSubtitles: Dutch\nNL Vertaling:  J'nsync (Thanks)\nResync : alwin1971 (Thanks)\n.\nEnjoy\n.\nVideo\nID                                       : 2\nFormat                                   : AVC\nFormat/Info                              : Advanced Video Codec\nFormat profile                           : &lt;a class=&quot;__cf_email__&quot; href=&quot;/cdn-cgi/l/email-protection&quot; data-cfemail=&quot;7b33121c133b374e554a&quot;&gt;[email&amp;#160;protected]&lt;/a&gt;&lt;script cf-hash='f9e31' type=&quot;text/javascript&quot;&gt;\n/* &lt;![CDATA[ */!function(){try{var t=&quot;currentScript&quot;in document?document.currentScript:function(){for(var t=document.getElementsByTagName(&quot;script&quot;),e=t.length;e--;)if(t[e].getAttribute(&quot;cf-hash&quot;))return t[e]}();if(t&amp;&amp;t.previousSibling){var e,r,n,i,c=t.previousSibling,a=c.getAttribute(&quot;data-cfemail&quot;);if(a){for(e=&quot;&quot;,r=parseInt(a.substr(0,2),16),n=2;a.length-n;n+=2)i=parseInt(a.substr(n,2),16)^r,e+=String.fromCharCode(i);e=document.createTextNode(e),c.parentNode.replaceChild(e,c)}}}catch(u){}}();/* ]]&gt; */&lt;/script&gt;\nFormat settings, CABAC                   : Yes\nFormat settings, ReFrames                : 6 frames\nCodec ID                                 : V_MPEG4/ISO/AVC\nDuration                                 : 1h 48mn\nBit rate mode                            : Variable\nBit rate                                 : 4 291 Kbps\nMaximum bit rate                         : 5 000 Kbps\nWidth                                    : 1 916 pixels\nHeight                                   : 1 032 pixels\nDisplay aspect ratio                     : 1.85:1\nFrame rate mode                          : Constant\nFrame rate                               : 23.976 fps\nStandard                                 : Component\nColor space                              : YUV\nChroma subsampling                       : 4:2:0\nBit depth                                : 8 bits\nScan type                                : Progressive\nBits/(Pixel*Frame)                       : 0.091\nStream size                              : 3.24 GiB (89%)\nWriting library                          : x264 core 136\nEncoding settings                        : cabac=1 / ref=6 / deblock=1:0:0 / analyse=0x3:0x113 / me=hex / subme=7 / psy=1 / psy_rd=1.00:0.00 / mixed_ref=1 / me_range=16 / chroma_me=1 / trellis=1 / 8x8dct=1 / cqm=2 / deadzone=21,11 / fast_pskip=1 / chroma_qp_offset=-2 / threads=12 / lookahead_threads=2 / sliced_threads=0 / slices=1 / nr=0 / decimate=1 / interlaced=0 / bluray_compat=0 / constrained_intra=0 / bframes=3 / b_pyramid=0 / b_adapt=1 / b_bias=0 / direct=1 / weightb=1 / open_gop=0 / weightp=1 / keyint=250 / keyint_min=23 / scenecut=40 / intra_refresh=0 / rc_lookahead=40 / rc=crf / mbtree=1 / crf=1.0 / qcomp=0.60 / qpmin=3 / qpmax=69 / qpstep=4 / vbv_maxrate=5000 / vbv_bufsize=5000 / crf_max=51.0 / nal_hrd=vbr / ip_ratio=1.40 / aq=1:1.00\nDefault                                  : Yes\nForced                                   : No\nColor primaries                          : BT.709\nTransfer characteristics                 : BT.709\nMatrix coefficients                      : BT.709\n\nAudio\nID                                       : 1\nFormat                                   : AC-3\nFormat/Info                              : Audio Coding 3\nMode extension                           : CM (complete main)\nFormat settings, Endianness              : Big\nCodec ID                                 : A_AC3\nDuration                                 : 1h 48mn\nBit rate mode                            : Constant\nBit rate                                 : 448 Kbps\nChannel(s)                               : 6 channels\nChannel positions                        : Front: L C R, Side: L R, LFE\nSampling rate                            : 48.0 KHz\nBit depth                                : 16 bits\nCompression mode                         : Lossy\nStream size                              : 347 MiB (9%)\nDefault                                  : Yes\nForced                                   : No\n\nText\nID                                       : 3\nFormat                                   : UTF-8\nCodec ID                                 : S_TEXT/UTF8\nCodec ID/Info                            : UTF-8 Plain Text\nLanguage                                 : Dutch\nDefault                                  : Yes\nForced                                   : No\n\n","torrent":{"xt":"urn:btih:1bcb4233d9ffd1f5d269ff6f8614da7625e34ffc","amp;dn":"Under+the+Skin+%282013%29+1080p+DD5.1+NL+Subs+x264-NLU002","amp;tr":["udp%3A%2F%2Ftracker.openbittorrent.com%3A80","udp%3A%2F%2Fopen.demonii.com%3A1337","udp%3A%2F%2Ftracker.coppersurfer.tk%3A6969","udp%3A%2F%2Fexodus.desync.com%3A6969"],"infoHash":"1bcb4233d9ffd1f5d269ff6f8614da7625e34ffc","infoHashBuffer":{"type":"Buffer","data":[27,203,66,51,217,255,209,245,210,105,255,111,134,20,218,118,37,227,79,252]},"announce":[],"urlList":[]}}